<?xml version="1.0" encoding="UTF-8" standalone="no"?>
<svg
   width="256"
   height="64"
   fill="none"
   viewBox="0 0 256 64"
   version="1.1"
   id="svg27"
   sodipodi:docname="hcb-logo-original-light.svg"
   inkscape:version="1.2.2 (732a01da63, 2022-12-09)"
   xmlns:inkscape="http://www.inkscape.org/namespaces/inkscape"
   xmlns:sodipodi="http://sodipodi.sourceforge.net/DTD/sodipodi-0.dtd"
   xmlns="http://www.w3.org/2000/svg"
   xmlns:svg="http://www.w3.org/2000/svg">
  <sodipodi:namedview
     id="namedview29"
     pagecolor="#ffffff"
     bordercolor="#000000"
     borderopacity="0.25"
     inkscape:showpageshadow="2"
     inkscape:pageopacity="0.0"
     inkscape:pagecheckerboard="0"
     inkscape:deskcolor="#d1d1d1"
     showgrid="false"
     inkscape:zoom="4.9101562"
     inkscape:cx="127.89817"
     inkscape:cy="31.974543"
     inkscape:window-width="1920"
     inkscape:window-height="1017"
     inkscape:window-x="-8"
     inkscape:window-y="-8"
     inkscape:window-maximized="1"
     inkscape:current-layer="g20" />
  <g
     clip-path="url(#clip0)"
     id="g20">
    <rect
       width="254"
       height="62"
       x="1"
       y="1"
       fill="#fff"
       stroke="#798B96"
       stroke-width="2"
       rx="11"
       id="rect2" />
    <path
       fill="#17171d"
       d="m 71.08,41.4 h 3.72 v -5.952 h 5.904 V 41.4 h 3.72 V 26.28 h -3.72 v 5.928 H 74.8 V 26.28 h -3.72 z m 15.0116,-5.28 c 0,3.624 2.088,5.64 4.56,5.64 1.416,0 2.688,-0.576 3.456,-1.752 V 41.4 h 3.696 V 30.84 h -3.696 v 1.392 c -0.768,-1.176 -2.04,-1.752 -3.456,-1.752 -2.472,0 -4.56,2.016 -4.56,5.64 z m 5.88,-2.64 c 1.32,0 2.184,0.96 2.184,2.64 0,1.68 -0.888,2.64 -2.184,2.64 -1.392,0 -2.184,-1.128 -2.184,-2.64 0,-1.512 0.792,-2.64 2.184,-2.64 z m 11.1274,2.64 c 0,-1.848 0.912,-2.76 2.016,-2.76 0.864,0 1.656,0.552 1.752,1.728 h 3.792 c -0.504,-3.48 -3.288,-4.608 -5.544,-4.608 -2.832,0 -5.712,1.752 -5.712,5.64 0,3.888 2.88,5.64 5.712,5.64 2.28,0 5.064,-1.128 5.544,-4.608 h -3.792 c -0.12,1.152 -0.888,1.728 -1.752,1.728 -1.104,0 -2.016,-0.912 -2.016,-2.76 z m 9.067,5.28 h 3.696 v -4.56 l 3.432,4.56 h 4.512 l -4.464,-5.568 4.128,-4.992 h -4.032 l -3.576,4.152 V 25.08 h -3.696 z m 28.088,-5.952 c -0.504,2.472 -2.112,2.952 -3.552,2.952 -2.256,0 -3.792,-1.92 -3.792,-4.56 0,-2.64 1.512,-4.56 3.792,-4.56 1.512,0 3.048,0.624 3.504,2.952 h 3.816 c -0.936,-4.968 -4.08,-6.312 -7.32,-6.312 -4.536,0 -7.512,3.336 -7.512,7.92 0,4.584 3.12,7.92 7.512,7.92 3.24,0 6.36,-1.2 7.32,-6.312 z m 5.357,5.952 h 3.696 V 25.08 h -3.696 z m 9.388,-10.56 h -3.696 v 6.72 c 0,2.688 1.512,4.2 3.768,4.2 1.152,0 2.28,-0.576 2.976,-1.728 V 41.4 h 3.696 V 30.84 h -3.696 v 5.352 c 0,1.704 -0.672,2.448 -1.536,2.448 -0.912,0 -1.512,-0.696 -1.512,-2.136 z m 20.606,5.28 c 0,-3.624 -2.088,-5.64 -4.56,-5.64 -1.416,0 -2.688,0.576 -3.456,1.752 V 25.08 h -3.696 V 41.4 h 3.696 v -1.392 c 0.768,1.176 2.04,1.752 3.456,1.752 2.472,0 4.56,-2.016 4.56,-5.64 z m -5.88,-2.64 c 1.392,0 2.184,1.128 2.184,2.64 0,1.512 -0.792,2.64 -2.184,2.64 -1.296,0 -2.184,-0.984 -2.184,-2.64 0,-1.656 0.864,-2.64 2.184,-2.64 z m 12.332,7.92 h 6.504 c 3.648,0 5.4,-1.896 5.4,-4.536 0,-1.2 -0.504,-2.664 -2.904,-3.384 1.704,-0.696 2.304,-1.968 2.304,-3.192 0,-2.184 -1.44,-4.008 -5.256,-4.008 h -6.048 z m 5.664,-12.36 c 1.2,0 1.896,0.48 1.896,1.608 0,1.248 -0.6,1.752 -2.04,1.752 h -1.8 v -3.36 z m 0.408,6 c 1.32,0 2.088,0.6 2.088,1.824 0,1.176 -0.792,1.776 -2.136,1.776 h -2.304 v -3.6 z m 7.017,1.08 c 0,3.624 2.088,5.64 4.56,5.64 1.416,0 2.688,-0.576 3.456,-1.752 V 41.4 h 3.696 V 30.84 h -3.696 v 1.392 c -0.768,-1.176 -2.04,-1.752 -3.456,-1.752 -2.472,0 -4.56,2.016 -4.56,5.64 z m 5.88,-2.64 c 1.32,0 2.184,0.96 2.184,2.64 0,1.68 -0.888,2.64 -2.184,2.64 -1.392,0 -2.184,-1.128 -2.184,-2.64 0,-1.512 0.792,-2.64 2.184,-2.64 z m 7.984,7.92 h 3.696 v -5.784 c 0,-1.488 0.696,-2.136 1.824,-2.136 1.032,0 1.584,0.696 1.584,2.136 V 41.4 h 3.696 v -6.144 c 0,-3 -1.536,-4.776 -4.008,-4.776 -1.344,0 -2.424,0.624 -3.096,1.752 V 30.84 h -3.696 z m 12.797,0 h 3.696 v -4.56 l 3.432,4.56 h 4.512 l -4.464,-5.568 4.128,-4.992 h -4.032 l -3.576,4.152 V 25.08 h -3.696 z"
       id="path6" />
    <circle
       cx="36"
       cy="32"
       r="22.5"
       stroke="#E42D42"
       stroke-width="3"
       id="circle8" />
    <path
       fill="#E42D42"
       d="M22.5 44C22.5 43.172 23.172 42.5 24 42.5H48C48.828 42.5 49.5 43.172 49.5 44C49.5 44.828 48.828 45.5 48 45.5H24C23.172 45.5 22.5 44.828 22.5 44Z"
       id="path10" />
    <path
       fill="#E42D42"
       fill-rule="evenodd"
       d="M36 41C35.172 41 34.5 40.328 34.5 39.5V29C34.5 28.172 35.172 27.5 36 27.5C36.828 27.5 37.5 28.172 37.5 29V39.5C37.5 40.328 36.828 41 36 41Z"
       clip-rule="evenodd"
       id="path12" />
    <path
       fill="#E42D42"
       fill-rule="evenodd"
       d="M43.5 41C42.672 41 42 40.328 42 39.5V29C42 28.172 42.672 27.5 43.5 27.5C44.328 27.5 45 28.172 45 29V39.5C45 40.328 44.328 41 43.5 41Z"
       clip-rule="evenodd"
       id="path14" />
    <path
       fill="#E42D42"
       fill-rule="evenodd"
       d="M28.5 41C27.672 41 27 40.328 27 39.5V29C27 28.172 27.672 27.5 28.5 27.5C29.328 27.5 30 28.172 30 29V39.5C30 40.328 29.328 41 28.5 41Z"
       clip-rule="evenodd"
       id="path16" />
    <path
       fill="#E42D42"
       d="M36.0004 20.027C36.0619 20.048 36.1564 20.084 36.2914 20.144C36.6499 20.2985 37.0759 20.5205 37.6234 20.834C38.7364 21.47 40.1299 22.3685 41.6974 23.4755C44.8489 25.6985 45 26 48.4399 28.5605C49.0249 29.147 49.9759 29.147 50.5609 28.5605C51.1474 27.9755 51.1474 27.0245 50.5609 26.4395C47.25 23.75 46.6519 23.3015 43.4284 21.0245C41.8084 19.8815 40.2949 18.905 39.1114 18.2285C38.5099 17.885 37.9414 17.591 37.4959 17.396C37.1029 17.2235 36.5374 17 36.0004 17C35.4634 17 34.8979 17.2235 34.5049 17.396C34.0594 17.591 33.4909 17.885 32.8894 18.2285C31.7059 18.905 30.1924 19.8815 28.5724 21.0245C25.3489 23.3015 24.7508 23.75 21.4399 26.4395C20.8534 27.0245 20.8534 27.9755 21.4399 28.5605C22.0249 29.147 22.9759 29.147 23.5609 28.5605C27.0008 26 27.1519 25.6985 30.3034 23.4755C31.8709 22.3685 33.2644 21.47 34.3774 20.834C34.9249 20.5205 35.3509 20.2985 35.7094 20.144C35.8444 20.084 35.9389 20.048 36.0004 20.027Z"
       id="path18" />
  </g>
  <defs
     id="defs25">
    <clipPath
       id="clip0">
      <rect
         width="256"
         height="64"
         fill="#fff"
         id="rect22" />
    </clipPath>
  </defs>
</svg>
